External Loads File
version=1
nRows=38
nColumns=13
Range=5.000000e-03-10 seconds
endheader
time 	forceRightX 	forceRightY 	forceRightZ 	pointRightX 	pointRightY 	pointRightZ 	forceLeftX 	forceLeftY 	forceLeftZ 	pointLeftX 	pointLeftY 	pointLeftZ 		
7.505000 85.284078 337.471029 -0.000000 0.342677 0.416747 -0.124231 69.748298 -34.615438 -0.000000 0.088505 0.195121 -0.361978
7.510000 101.112536 376.475256 -0.000000 0.346580 0.409842 -0.124052 43.617537 -81.096840 -0.000000 0.083323 0.202949 -0.361878
7.515000 114.478382 414.507951 -0.000000 0.350581 0.401778 -0.123990 17.047508 -124.360825 -0.000000 0.078919 0.211093 -0.361714
7.520000 123.360878 449.820552 -0.000000 0.354263 0.393474 -0.124139 -9.416376 -162.173910 -0.000000 0.075335 0.219219 -0.361786
7.525000 127.784127 480.478571 -0.000000 0.357830 0.384705 -0.124403 -35.102151 -192.598885 -0.000000 0.072550 0.227295 -0.362155
7.530000 127.937410 505.177978 -0.000000 0.360966 0.375405 -0.124549 -58.853890 -214.187641 -0.000000 0.070484 0.235479 -0.362451
7.535000 125.082663 523.184337 -0.000000 0.363668 0.365339 -0.124577 -79.618147 -226.173647 -0.000000 0.068708 0.243971 -0.362676
7.540000 118.913047 535.017146 -0.000000 0.366030 0.355020 -0.124505 -95.629499 -228.884481 -0.000000 0.067323 0.252781 -0.362841
7.545000 110.588603 541.564040 -0.000000 0.367884 0.344390 -0.124328 -105.917899 -223.281443 -0.000000 0.065640 0.262014 -0.361690
7.550000 99.932328 544.438848 -0.000000 0.369356 0.333771 -0.123977 -109.320268 -211.187687 -0.000000 0.064680 0.271586 -0.361913
7.555000 89.939111 544.780450 -0.000000 0.370309 0.322249 -0.123702 -106.528149 -194.092833 -0.000000 0.064138 0.281510 -0.362079
7.560000 79.650507 544.359832 -0.000000 0.370732 0.311036 -0.123513 -97.434460 -174.248123 -0.000000 0.064028 0.291771 -0.362236
7.565000 69.873756 544.343726 -0.000000 0.370467 0.300011 -0.123102 -83.311886 -153.263139 -0.000000 0.064414 0.302100 -0.362357
7.570000 61.834864 545.546660 -0.000000 0.369618 0.289070 -0.123259 -65.892414 -132.294121 -0.000000 0.065407 0.312510 -0.362475
7.575000 55.917799 548.608235 -0.000000 0.368258 0.278293 -0.123580 -46.726573 -112.262415 -0.000000 0.067010 0.322849 -0.362546
7.580000 52.414962 553.948627 -0.000000 0.366127 0.267873 -0.123675 -27.234013 -93.794433 -0.000000 0.069272 0.333066 -0.362580
7.585000 52.346015 561.710115 -0.000000 0.363358 0.257546 -0.123761 -8.692815 -77.287211 -0.000000 0.072231 0.343188 -0.362695
7.590000 56.021288 571.815032 -0.000000 0.359953 0.247479 -0.123793 8.067052 -63.053892 -0.000000 0.075852 0.353352 -0.362815
7.595000 62.755786 583.952964 -0.000000 0.355997 0.237279 -0.123755 22.572989 -51.247417 -0.000000 0.080075 0.362722 -0.362968
7.600000 73.708345 597.341050 -0.000000 0.351355 0.227441 -0.123667 34.390140 -41.981068 -0.000000 0.084931 0.372318 -0.363191
7.605000 87.761228 611.247629 -0.000000 0.346157 0.217851 -0.123503 43.453688 -35.237766 -0.000000 0.090381 0.381535 -0.363397
7.610000 105.459635 624.663984 -0.000000 0.340663 0.208488 -0.123074 49.656335 -31.012156 -0.000000 0.096275 0.391150 -0.363572
7.615000 124.729992 637.059900 -0.000000 0.334105 0.199652 -0.123296 53.072828 -29.005017 -0.000000 0.102788 0.399830 -0.363774
7.620000 145.222227 647.857934 -0.000000 0.327255 0.191158 -0.123066 53.692838 -28.959032 -0.000000 0.109882 0.408090 -0.363730
7.625000 166.369580 656.747983 -0.000000 0.319895 0.183103 -0.123022 51.529020 -30.535500 -0.000000 0.117473 0.415979 -0.363866
7.630000 187.947001 663.564823 -0.000000 0.311816 0.175462 -0.123469 46.621241 -33.334546 -0.000000 0.125615 0.423433 -0.363864
7.635000 207.623404 668.973760 -0.000000 0.303816 0.168274 -0.123212 39.202379 -36.774601 -0.000000 0.134187 0.430243 -0.363777
7.640000 226.680462 672.810894 -0.000000 0.295389 0.161392 -0.123051 29.386373 -40.570490 -0.000000 0.143300 0.436807 -0.363659
7.645000 243.319289 675.980485 -0.000000 0.286768 0.155044 -0.122706 17.480479 -44.305484 -0.000000 0.152787 0.442484 -0.363537
7.650000 257.762237 678.737229 -0.000000 0.277835 0.149745 -0.122285 3.728146 -47.687321 -0.000000 0.162608 0.447564 -0.363467
7.655000 270.585263 680.980554 -0.000000 0.268848 0.144623 -0.122321 -11.554472 -50.379735 -0.000000 0.172831 0.451866 -0.363845
7.660000 282.412012 682.257662 -0.000000 0.259576 0.139883 -0.121905 -27.910100 -52.006513 -0.000000 0.183375 0.455550 -0.363872
7.665000 292.682957 682.221774 -0.000000 0.250234 0.135703 -0.121767 -44.643811 -52.261478 -0.000000 0.194010 0.458956 -0.363939
7.670000 300.564761 680.338537 -0.000000 0.240788 0.131815 -0.121539 -60.957636 -50.979301 -0.000000 0.204296 0.461490 -0.363693
7.675000 307.639084 674.801514 -0.000000 0.231140 0.129448 -0.121306 -76.250855 -47.862132 -0.000000 0.214926 0.463997 -0.363833
7.680000 312.489103 665.048917 -0.000000 0.221517 0.127137 -0.121131 -89.760226 -42.956074 -0.000000 0.225446 0.465438 -0.363927
7.685000 315.175000 649.968571 -0.000000 0.211820 0.125642 -0.120844 -100.879441 -36.317738 -0.000000 0.235865 0.466528 -0.364066
7.690000 315.131603 629.039515 -0.000000 0.202261 0.124804 -0.120621 -109.005295 -28.223202 -0.000000 0.246206 0.467253 -0.363999
